<?xml version="1.0" standalone="no"?>
<!DOCTYPE svg PUBLIC "-//W3C//DTD SVG 20010904//EN"
 "http://www.w3.org/TR/2001/REC-SVG-20010904/DTD/svg10.dtd">
<svg version="1.0" xmlns="http://www.w3.org/2000/svg"
 width="260.000000pt" height="260.000000pt" viewBox="0 0 260.000000 260.000000"
 preserveAspectRatio="xMidYMid meet">
<metadata>
Created by potrace 1.14, written by Peter Selinger 2001-2017
</metadata>
<g transform="translate(0.000000,260.000000) scale(0.100000,-0.100000)"
fill="#000000" stroke="none">
<path d="M0 1300 l0 -1300 1300 0 1300 0 0 1300 0 1300 -1300 0 -1300 0 0
-1300z m2340 100 l0 -490 -1040 0 -1040 0 0 490 0 490 1040 0 1040 0 0 -490z
m-1985 -570 c3 -6 -4 -14 -17 -19 -20 -8 -21 -10 -5 -16 21 -9 23 -25 2 -25
-8 0 -15 -4 -15 -10 0 -5 -4 -10 -10 -10 -5 0 -10 20 -10 45 0 41 2 45 24 45
14 0 28 -5 31 -10z m136 0 c29 -16 26 -67 -5 -81 -34 -16 -66 3 -66 41 0 41
33 60 71 40z m149 0 c9 -5 15 -24 15 -45 0 -36 -12 -44 -33 -23 -9 9 -12 9
-12 0 0 -7 -7 -12 -15 -12 -11 0 -15 11 -15 38 0 21 3 42 7 45 9 10 35 8 53
-3z m198 -28 c2 -18 7 -32 12 -32 5 0 10 14 12 32 5 49 28 48 28 -1 0 -47 -26
-69 -60 -51 -15 8 -20 21 -20 51 0 49 23 50 28 1z m154 18 c7 -11 16 -20 20
-20 5 0 8 9 8 20 0 11 5 20 10 20 6 0 10 -20 10 -45 0 -48 -19 -62 -39 -27
-10 16 -10 16 -11 0 0 -10 -7 -18 -15 -18 -11 0 -15 12 -15 45 0 48 12 57 32
25z m148 -25 c0 -33 -4 -45 -15 -45 -11 0 -15 11 -15 38 0 21 3 42 7 45 16 16
23 4 23 -38z m98 18 l10 -28 11 28 c6 15 15 27 21 27 13 0 13 -4 -2 -51 -14
-49 -41 -52 -57 -8 -6 18 -11 38 -11 45 0 24 18 15 28 -13z m182 12 c0 -8 -10
-16 -22 -16 l-23 -2 23 -4 c12 -2 22 -9 22 -14 0 -5 -10 -10 -22 -10 l-23 -2
23 -4 c32 -6 27 -23 -8 -23 -29 0 -30 2 -30 45 0 43 1 45 30 45 20 0 30 -5 30
-15z m117 9 c25 -7 38 -33 24 -47 -5 -5 -7 -16 -4 -23 3 -8 -1 -14 -11 -14 -9
0 -16 6 -17 13 0 10 -2 10 -6 0 -2 -7 -11 -13 -19 -13 -10 0 -14 13 -14 45 0
47 4 50 47 39z m147 0 c23 -9 20 -27 -4 -21 -11 3 -20 2 -20 -3 0 -4 9 -10 20
-13 27 -7 26 -44 -1 -52 -14 -5 -27 -1 -38 10 -15 16 -15 17 7 12 28 -7 28 0
0 23 -19 15 -20 20 -9 34 15 18 21 19 45 10z m114 -42 c2 -33 0 -42 -12 -42
-12 0 -16 11 -16 46 0 59 24 55 28 -4z m142 33 c0 -8 -4 -15 -10 -15 -5 0 -10
-13 -10 -30 0 -20 -5 -30 -15 -30 -10 0 -15 10 -15 30 0 20 -5 30 -15 30 -16
0 -20 12 -8 23 3 4 21 7 40 7 23 0 33 -5 33 -15z m90 -30 c0 -25 -4 -45 -10
-45 -5 0 -10 20 -10 45 0 25 5 45 10 45 6 0 10 -20 10 -45z m140 30 c0 -8 -10
-16 -22 -16 l-23 -2 23 -4 c12 -2 22 -9 22 -14 0 -5 -10 -10 -22 -10 l-23 -2
23 -4 c32 -6 27 -23 -8 -23 -29 0 -30 2 -30 45 0 43 1 45 30 45 20 0 30 -5 30
-15z m114 9 c23 -9 20 -26 -4 -19 -11 4 -20 2 -20 -4 0 -6 6 -11 14 -11 7 0
20 -7 27 -16 11 -14 10 -18 -6 -30 -24 -18 -27 -17 -51 2 -18 15 -18 15 9 9
15 -3 27 -1 27 5 0 5 -6 10 -14 10 -7 0 -19 7 -26 15 -10 12 -10 18 0 30 14
17 21 18 44 9z"/>
<path d="M602 1428 l3 -353 67 -3 68 -3 2 168 3 168 29 -145 c41 -204 33 -190
111 -190 l65 0 0 355 0 355 -70 0 -70 0 -1 -147 -1 -148 -19 95 c-10 52 -24
119 -30 148 l-10 52 -75 0 -74 0 2 -352z"/>
<path d="M1010 1483 c0 -290 1 -299 23 -338 27 -49 76 -75 140 -75 87 0 146
40 166 115 7 24 11 148 11 318 l0 277 -70 0 -70 0 0 -274 c0 -151 -3 -281 -6
-290 -10 -25 -43 -19 -54 10 -6 14 -10 142 -10 290 l0 264 -65 0 -65 0 0 -297z"/>
<path d="M1402 1428 l3 -353 70 0 70 0 3 163 2 162 65 0 65 0 0 65 0 65 -65 0
-65 0 0 55 0 54 68 3 67 3 3 68 3 67 -146 0 -145 0 2 -352z"/>
<path d="M1710 1715 l0 -65 40 0 40 0 2 -287 3 -288 70 0 70 0 3 288 2 287 40
0 40 0 0 65 0 65 -155 0 -155 0 0 -65z"/>
<path d="M445 800 c-4 -7 -3 -16 3 -22 14 -14 45 -2 40 15 -6 16 -34 21 -43 7z"/>
<path d="M610 800 c0 -5 5 -10 10 -10 6 0 10 5 10 10 0 6 -4 10 -10 10 -5 0
-10 -4 -10 -10z"/>
<path d="M1520 800 c0 -5 5 -10 10 -10 6 0 10 5 10 10 0 6 -4 10 -10 10 -5 0
-10 -4 -10 -10z"/>
</g>
</svg>
